<svg xmlns="http://www.w3.org/2000/svg" xmlns:xlink="http://www.w3.org/1999/xlink">

<symbol id="facebook_o" fill-rule="evenodd" clip-rule="evenodd" stroke-linejoin="round" stroke-miterlimit="1.414"><path d="M15.117 0H.883C.395 0 0 .395 0 .883v14.234c0 .488.395.883.883.883h7.663V9.804H6.46V7.39h2.086V5.607c0-2.066 1.262-3.19 3.106-3.19.883 0 1.642.064 1.863.094v2.16h-1.28c-1 0-1.195.48-1.195 1.18v1.54h2.39l-.31 2.42h-2.08V16h4.077c.488 0 .883-.395.883-.883V.883C16 .395 15.605 0 15.117 0" fill-rule="nonzero"/></symbol>

<symbol id="facebook" viewBox="0 0 22 22"><path d="M 12 2 C 6.4666667 2 2 6.4666667 2 12 C 2 17.533333 6.4666667 22 12 22 C 17.533333 22 22 17.533333 22 12 C 22 6.4666667 17.533333 2 12 2 z M 12 4 C 16.466667 4 20 7.5333333 20 12 C 20 16.057491 17.081555 19.336065 13.199219 19.904297 L 13.199219 14.400391 L 15.5 14.400391 L 15.900391 12 L 13.199219 12 L 13.199219 10.699219 C 13.199219 9.6992188 13.500391 8.8007812 14.400391 8.8007812 L 15.900391 8.8007812 L 15.900391 6.8007812 C 15.600391 6.8007812 15.099609 6.6992187 14.099609 6.6992188 C 11.899609 6.6992188 10.699219 7.8003906 10.699219 10.400391 L 10.699219 12 L 8.4003906 12 L 8.4003906 14.400391 L 10.599609 14.400391 L 10.599609 19.873047 C 6.8178865 19.222761 4 15.987292 4 12 C 4 7.5333333 7.5333333 4 12 4 z"/></symbol>

<symbol id="instagram_o" fill-rule="evenodd" clip-rule="evenodd" stroke-linejoin="round" stroke-miterlimit="1.414"><path d="M8 0C5.827 0 5.555.01 4.702.048 3.85.088 3.27.222 2.76.42c-.526.204-.973.478-1.417.923-.445.444-.72.89-.923 1.417-.198.51-.333 1.09-.372 1.942C.008 5.555 0 5.827 0 8s.01 2.445.048 3.298c.04.852.174 1.433.372 1.942.204.526.478.973.923 1.417.444.445.89.72 1.417.923.51.198 1.09.333 1.942.372.853.04 1.125.048 3.298.048s2.445-.01 3.298-.048c.852-.04 1.433-.174 1.942-.372.526-.204.973-.478 1.417-.923.445-.444.72-.89.923-1.417.198-.51.333-1.09.372-1.942.04-.853.048-1.125.048-3.298s-.01-2.445-.048-3.298c-.04-.852-.174-1.433-.372-1.942-.204-.526-.478-.973-.923-1.417-.444-.445-.89-.72-1.417-.923-.51-.198-1.09-.333-1.942-.372C10.445.008 10.173 0 8 0zm0 1.44c2.136 0 2.39.01 3.233.048.78.036 1.203.166 1.485.276.374.145.64.318.92.598.28.28.453.546.598.92.11.282.24.705.276 1.485.038.844.047 1.097.047 3.233s-.01 2.39-.05 3.233c-.04.78-.17 1.203-.28 1.485-.15.374-.32.64-.6.92-.28.28-.55.453-.92.598-.28.11-.71.24-1.49.276-.85.038-1.1.047-3.24.047s-2.39-.01-3.24-.05c-.78-.04-1.21-.17-1.49-.28-.38-.15-.64-.32-.92-.6-.28-.28-.46-.55-.6-.92-.11-.28-.24-.71-.28-1.49-.03-.84-.04-1.1-.04-3.23s.01-2.39.04-3.24c.04-.78.17-1.21.28-1.49.14-.38.32-.64.6-.92.28-.28.54-.46.92-.6.28-.11.7-.24 1.48-.28.85-.03 1.1-.04 3.24-.04zm0 2.452c-2.27 0-4.108 1.84-4.108 4.108 0 2.27 1.84 4.108 4.108 4.108 2.27 0 4.108-1.84 4.108-4.108 0-2.27-1.84-4.108-4.108-4.108zm0 6.775c-1.473 0-2.667-1.194-2.667-2.667 0-1.473 1.194-2.667 2.667-2.667 1.473 0 2.667 1.194 2.667 2.667 0 1.473-1.194 2.667-2.667 2.667zm5.23-6.937c0 .53-.43.96-.96.96s-.96-.43-.96-.96.43-.96.96-.96.96.43.96.96z"/></symbol>

<symbol id="instagram" viewBox="0 0 22 22"><path d="M 8 3 C 5.2 3 3 5.2 3 8 L 3 16 C 3 18.8 5.2 21 8 21 L 16 21 C 18.8 21 21 18.8 21 16 L 21 8 C 21 5.2 18.8 3 16 3 L 8 3 z M 8 5 L 16 5 C 17.7 5 19 6.3 19 8 L 19 16 C 19 17.7 17.7 19 16 19 L 8 19 C 6.3 19 5 17.7 5 16 L 5 8 C 5 6.3 6.3 5 8 5 z M 17 6 C 16.4 6 16 6.4 16 7 C 16 7.6 16.4 8 17 8 C 17.6 8 18 7.6 18 7 C 18 6.4 17.6 6 17 6 z M 12 7 C 9.2 7 7 9.2 7 12 C 7 14.8 9.2 17 12 17 C 14.8 17 17 14.8 17 12 C 17 9.2 14.8 7 12 7 z M 12 9 C 13.7 9 15 10.3 15 12 C 15 13.7 13.7 15 12 15 C 10.3 15 9 13.7 9 12 C 9 10.3 10.3 9 12 9 z"/></symbol>

<symbol id="twitter" fill-rule="evenodd" clip-rule="evenodd" stroke-linejoin="round" stroke-miterlimit="1.414"><path d="M16 3.038c-.59.26-1.22.437-1.885.517.677-.407 1.198-1.05 1.443-1.816-.634.37-1.337.64-2.085.79-.598-.64-1.45-1.04-2.396-1.04-1.812 0-3.282 1.47-3.282 3.28 0 .26.03.51.085.75-2.728-.13-5.147-1.44-6.766-3.42C.83 2.58.67 3.14.67 3.75c0 1.14.58 2.143 1.46 2.732-.538-.017-1.045-.165-1.487-.41v.04c0 1.59 1.13 2.918 2.633 3.22-.276.074-.566.114-.865.114-.21 0-.41-.02-.61-.058.42 1.304 1.63 2.253 3.07 2.28-1.12.88-2.54 1.404-4.07 1.404-.26 0-.52-.015-.78-.045 1.46.93 3.18 1.474 5.04 1.474 6.04 0 9.34-5 9.34-9.33 0-.14 0-.28-.01-.42.64-.46 1.2-1.04 1.64-1.7z" fill-rule="nonzero"/></symbol>

<symbol id="x" viewBox="0 0 22 22" stroke-linejoin="round"><path d="M 6 3 C 4.3550302 3 3 4.3550302 3 6 L 3 18 C 3 19.64497 4.3550302 21 6 21 L 18 21 C 19.64497 21 21 19.64497 21 18 L 21 6 C 21 4.3550302 19.64497 3 18 3 L 6 3 z M 6 5 L 18 5 C 18.56503 5 19 5.4349698 19 6 L 19 18 C 19 18.56503 18.56503 19 18 19 L 6 19 C 5.4349698 19 5 18.56503 5 18 L 5 6 C 5 5.4349698 5.4349698 5 6 5 z M 6.7011719 7 L 10.642578 12.632812 L 6.90625 17 L 8.2382812 17 L 11.240234 13.484375 L 13.697266 17 L 17.537109 17 L 13.351562 11.009766 L 16.773438 7 L 15.462891 7 L 12.759766 10.160156 L 10.552734 7 L 6.7011719 7 z M 8.5664062 7.9882812 L 10.052734 7.9882812 L 15.683594 16.011719 L 14.1875 16.011719 L 8.5664062 7.9882812 z"/></symbol>

</svg>
